<?xml version="1.0" encoding="UTF-8" standalone="no"?><svg xmlns="http://www.w3.org/2000/svg" xmlns:xlink="http://www.w3.org/1999/xlink" fill="#000000" height="500" preserveAspectRatio="xMidYMid meet" version="1" viewBox="0.0 0.0 364.6 500.0" width="364.6" zoomAndPan="magnify"><g id="Illustration"><g id="change1_1"><circle cx="151.3" cy="151.3" fill="#1dcd8d" r="151.3"/></g><g id="change2_1"><path d="M270.177948,469.9438477H99.9654007c-2.8908463,0-5.2347107-2.3438721-5.2347107-5.2347107v-97.1847229 c0-16.7521057-7.7447205-32.5150146-21.2481308-43.2451782C25.041008,285.7857056,0.0432049,225.8983307,6.617269,164.0786133 c9.0380611-84.972084,80.2715683-153.503891,165.6986237-159.4133911 c50.3790131-3.4889569,98.4295044,13.4855223,135.1951904,47.7974319 c36.262146,33.8390541,57.0604248,81.6824951,57.0604248,131.2589111c0,55.1229706-24.8189087,106.4067993-68.0896301,140.7008362 c-13.3909607,10.6125488-21.0692139,26.3192444-21.0692139,43.0917969v97.1949463 C275.4126587,467.5999756,273.0687866,469.9438477,270.177948,469.9438477z M105.200119,459.4744263h159.7431183v-91.9602356 c0-19.9880066,9.1249695-38.6852417,25.0361328-51.2966003c40.7505188-32.2977905,64.1226807-80.5910797,64.1226807-132.4960327 c0-46.6855621-19.5841675-91.7378387-53.7350464-123.6062012c-34.6160583-32.302887-79.7961426-48.2677383-127.3303223-45.0062675 C92.6040878,20.6735249,25.5368748,85.1923904,17.0304642,165.187912 c-6.1932182,58.2336426,17.3451004,114.6422882,62.9648132,150.8967743 c16.0185318,12.7263794,25.2048416,31.4747314,25.2048416,51.4397278V459.4744263z" fill="#ffffff"/></g><g id="change2_2"><path d="M183.7975006,500c-37.1695251,0-66.2850723-15.5022278-66.2850723-35.290863 c0-2.8908386,2.3438644-5.2347107,5.2347183-5.2347107c2.8908463,0,5.2347107,2.3438721,5.2347107,5.2347107 c0,11.7397766,22.9223175,24.8214417,55.8156433,24.8214417s55.8182068-13.081665,55.8182068-24.8214417 c0-2.8908386,2.3438568-5.2347107,5.2347107-5.2347107s5.2347107,2.3438721,5.2347107,5.2347107 C250.0851288,484.4977722,220.967041,500,183.7975006,500z" fill="#ffffff"/></g><g id="change2_3"><path d="M79.6987762,372.7591248c-2.7272644,0-5.025116-2.1112366-5.2168198-4.8717346 c-0.1993637-2.8857422,1.9757996-5.3855286,4.8589783-5.5848999l210.7381287-14.6025085 c2.9675293-0.1712341,5.385498,1.978363,5.5848694,4.8589783c0.1993713,2.8857422-1.9757996,5.3855286-4.8589783,5.5848999 L80.0668488,372.7463684C79.9416046,372.7540283,79.8189087,372.7591248,79.6987762,372.7591248z" fill="#ffffff"/></g><g id="change2_4"><path d="M79.6987762,406.2403564c-2.7272644,0-5.025116-2.1112671-5.2168198-4.8717651 c-0.1993637-2.8857422,1.9757996-5.3855286,4.8589783-5.5848999l210.7381287-14.602478 c2.9675293-0.1508179,5.385498,1.9757996,5.5848694,4.8589783c0.1993713,2.8857422-1.9757996,5.385498-4.8589783,5.5848694 L80.0668488,406.2275696C79.9416046,406.2352295,79.8189087,406.2403564,79.6987762,406.2403564z" fill="#ffffff"/></g><g id="change2_5"><path d="M79.6987762,439.7241211c-2.7272644,0-5.025116-2.1112671-5.2168198-4.8717651 c-0.1993637-2.8857422,1.9757996-5.3855286,4.8589783-5.5848999l210.7381287-14.6050415 c2.9675293-0.1917114,5.385498,1.978363,5.5848694,4.8589783c0.1993713,2.8857422-1.9757996,5.3855286-4.8589783,5.5848694 l-210.7381134,14.605072C79.9416046,439.7189941,79.8189087,439.7241211,79.6987762,439.7241211z" fill="#ffffff"/></g></g></svg>