<?xml version="1.0" encoding="UTF-8" standalone="no"?><svg xmlns="http://www.w3.org/2000/svg" xmlns:xlink="http://www.w3.org/1999/xlink" fill="#000000" height="500" preserveAspectRatio="xMidYMid meet" version="1" viewBox="0.0 0.0 425.4 500.0" width="425.4" zoomAndPan="magnify"><g id="Illustration"><g id="change1_1"><path d="M165.8787079,391.297699v42.0237427c0,11.6809082,13.6432037,18.0421143,22.5906525,10.5329895 l88.072052-73.914093c6.5480957-5.4954834,6.5480957-15.5705566,0-21.06604l-88.072052-73.914093 c-8.9474487-7.5091248-22.5906525-1.1479187-22.5906525,10.5329895V391.297699z" fill="#1dcd8d"/></g><g id="change2_1"><path d="M419.4742126,500H5.9205465C2.6509478,500,0,497.3490601,0,494.0794678V224.7350464 c0-3.2695923,2.6509478-5.9205475,5.9205465-5.9205475h413.5536804c3.2695923,0,5.9205322,2.6509552,5.9205322,5.9205475 v269.3444214C425.3947449,497.3490601,422.7438049,500,419.4742126,500z M11.8410931,488.158905h401.7125549V230.6555939 H11.8410931V488.158905z" fill="#ffffff"/></g><g id="change2_2"><path d="M419.4742126,181.7532654H249.562027c-3.2695923,0-5.9205475-2.6509399-5.9205475-5.9205475V5.9205465 C243.6414795,2.6509478,246.2924347,0,249.562027,0h169.9121857c3.2695923,0,5.9205322,2.6509478,5.9205322,5.9205465v169.9121704 C425.3947449,179.1023254,422.7438049,181.7532654,419.4742126,181.7532654z M255.4825745,169.9121704h158.0710754V11.8410931 H255.4825745V169.9121704z" fill="#ffffff"/></g><g id="change2_3"><path d="M175.8327179,181.7532654H5.9205465C2.6509478,181.7532654,0,179.1023254,0,175.8327179V5.9205465 C0,2.6509478,2.6509478,0,5.9205465,0h169.9121704c3.2696075,0,5.9205475,2.6509478,5.9205475,5.9205465v169.9121704 C181.7532654,179.1023254,179.1023254,181.7532654,175.8327179,181.7532654z M11.8410931,169.9121704h158.0710754V11.8410931 H11.8410931V169.9121704z" fill="#ffffff"/></g><g id="change1_2"><path d="M108.093338,145.7385406c-0.3035431,0-0.6070862-0.0231323-0.9135208-0.0693817 c-3.2320175-0.5001221-5.4464417-3.5240021-4.946312-6.756012l15.5125275-100.2445755 c0.5030136-3.2349091,3.5586853-5.4348793,6.756012-4.9463158c3.2320175,0.5001221,5.4464417,3.5239944,4.9463196,6.756012 l-15.5125275,100.2445679C113.4819641,143.6484222,110.9611053,145.7385406,108.093338,145.7385406z" fill="#1dcd8d"/></g><g id="change1_3"><path d="M62.7439194,145.7385406c-0.3035431,0-0.6070862-0.0231323-0.9135208-0.0693817 c-3.2320175-0.5001221-5.4464417-3.5240021-4.9463158-6.756012L72.3966064,38.6685715 c0.5001221-3.2349091,3.5413437-5.4348793,6.756012-4.9463158c3.2320175,0.5001221,5.4464417,3.5239944,4.9463196,6.756012 L68.5864105,140.7228394C68.1325378,143.6484222,65.6116867,145.7385406,62.7439194,145.7385406z" fill="#1dcd8d"/></g><g id="change1_4"><path d="M146.7966003,72.9429855H46.5520325c-3.2695999,0-5.9205475-2.6509476-5.9205475-5.9205475 c0-3.2695961,2.6509476-5.9205475,5.9205475-5.9205475h100.2445679c3.2696075,0,5.9205475,2.6509514,5.9205475,5.9205475 C152.7171478,70.292038,150.0662079,72.9429855,146.7966003,72.9429855z" fill="#1dcd8d"/></g><g id="change1_5"><path d="M139.7804108,118.2924042H39.5358391c-3.2695999,0-5.9205475-2.6509476-5.9205475-5.9205399 c0-3.2695999,2.6509476-5.9205475,5.9205475-5.9205475h100.2445679c3.2695923,0,5.9205475,2.6509476,5.9205475,5.9205475 C145.7009583,115.6414566,143.0500031,118.2924042,139.7804108,118.2924042z" fill="#1dcd8d"/></g><g id="change1_6"><path d="M340.3241577,58.3218155c1.8977966-1.9016495,3.5-3.6298904,5.2294617-5.2196388 c9.4395142-8.6768875,22.5860901-10.5148315,32.6095886-4.6038017c10.4141846,6.1414223,15.742157,19.2915878,12.773407,31.8756104 c-2.2414246,9.5010071-7.5422363,17.3628082-13.7420959,24.6734848 c-10.3151855,12.1633301-22.7487183,21.9376755-35.5747681,31.2465668 c-0.5657349,0.4105988-1.8753662,0.5494995-2.3788452,0.1831512 c-15.6494751-11.3873138-30.8747559-23.2593384-41.9667664-39.4762039 c-4.6798706-6.8421173-8.1768188-14.2285309-8.466217-22.705246c-0.4038391-11.8305664,6.2287903-22.7446022,16.3074341-27.1501122 c9.9911194-4.3672447,22.1146851-1.7282372,30.6707153,6.6801491 C337.2495422,55.2639732,338.7016602,56.7137146,340.3241577,58.3218155z" fill="#1dcd8d"/></g></g></svg>