<?xml version="1.0" encoding="UTF-8" standalone="no"?><svg xmlns="http://www.w3.org/2000/svg" xmlns:xlink="http://www.w3.org/1999/xlink" fill="#000000" height="500" preserveAspectRatio="xMidYMid meet" version="1" viewBox="0.0 0.0 497.6 500.0" width="497.6" zoomAndPan="magnify"><g id="Illustration"><g id="change1_1"><path d="M458.7606812,500H38.8685532C17.4349766,500,0,482.565033,0,461.1314392V38.8655319 C0,17.4349766,17.4349766,0,38.8685532,0h419.8921204c21.430542,0,38.8655396,17.4349766,38.8655396,38.8655319v422.2658997 C497.6262207,482.565033,480.1912231,500,458.7606812,500z M38.8685532,12.3702869 c-14.6111927,0-26.4982662,11.8870735-26.4982662,26.495245v422.2658997c0,14.6112061,11.8870735,26.4982605,26.4982662,26.4982605 h419.8921204c14.6081543,0,26.4952393-11.8870544,26.4952393-26.4982605V38.8655319 c0-14.6081715-11.887085-26.495245-26.4952393-26.495245H38.8685532z" fill="#ffffff"/></g><g id="change2_1"><path d="M97.086 294.849H169.519V392.204H97.086z" fill="#1dcd8d"/></g><g id="change2_2"><path d="M331.12 86.672H403.553V392.20399999999995H331.12z" fill="#1dcd8d" transform="rotate(180 367.336 239.438)"/></g><g id="change2_3"><path d="M214.103 193.939H286.536V392.20399999999995H214.103z" fill="#1dcd8d"/></g><g id="change1_2"><path d="M432.2835388,398.3890991H65.3456802c-3.4157219,0-6.1851425-2.7694397-6.1851425-6.1851501 c0-3.415741,2.7694206-6.1851501,6.1851425-6.1851501h366.9378662c3.415741,0,6.1851501,2.7694092,6.1851501,6.1851501 C438.468689,395.6196594,435.6992798,398.3890991,432.2835388,398.3890991z" fill="#ffffff"/></g></g></svg>